<svg width="184" height="192" viewBox="0 0 184 192" fill="none" xmlns="http://www.w3.org/2000/svg">
<g clip-path="url(#clip0_13_246)">
<rect width="184" height="192" fill="#AFE3EF"/>
<path d="M150.324 5.52122C144.892 2.12775 137.827 3.98601 134.537 9.67327C131.248 15.3605 132.986 22.6797 138.379 26.1077L138.516 26.1937C138.654 26.2796 138.893 26.4486 139.234 26.7008C139.916 27.2051 140.938 27.9616 142.189 29.0367C144.725 31.1896 148.111 34.4618 151.41 38.8556C157.949 47.488 163.988 60.2192 162.652 77.4173C162.138 84.0349 166.846 89.7794 173.188 90.2721C179.53 90.7649 185.069 85.8166 185.583 79.1991C187.5 54.5235 178.666 36.0084 169.514 23.9006C164.972 17.8681 160.311 13.3685 156.794 10.3871C155.003 8.85622 153.505 7.72427 152.378 6.92204C151.833 6.50362 151.352 6.20293 151.008 5.98816C150.838 5.86208 150.7 5.77617 150.599 5.69304L150.461 5.60713L150.392 5.56417L150.357 5.56139C150.357 5.56139 150.357 5.56139 144.402 15.856L150.324 5.52122ZM47.2172 81.8005C51.0654 61.0362 69.3481 46.0952 89.9859 47.6987C112.164 49.422 128.66 69.5479 126.861 92.6906C126.01 103.645 121.225 113.278 114.051 120.244C107.425 126.649 100.415 136.147 99.4596 148.448L99.2824 150.729C98.5125 160.636 90.1846 168.076 80.6898 167.338C74.348 166.845 68.8089 171.794 68.2947 178.411C67.7806 185.029 72.4888 190.773 78.8306 191.266C101.009 192.989 120.415 175.653 122.213 152.51L122.39 150.23C122.675 146.566 124.956 142.267 129.633 137.741C140.897 126.843 148.456 111.671 149.792 94.4724C152.616 58.1319 126.671 26.4769 91.8452 23.7709C59.3836 21.2486 30.6649 44.782 24.633 77.4128C23.4409 83.94 27.4964 90.198 33.7472 91.3984C39.998 92.5987 46.0251 88.3278 47.2172 81.8005ZM4.30521 185.475C7.34603 185.712 10.3603 184.678 12.6848 182.601C15.0093 180.524 16.4537 177.575 16.7003 174.402C16.9468 171.229 15.9753 168.092 13.9994 165.682C12.0236 163.271 9.20526 161.784 6.16444 161.547C3.12361 161.311 0.10939 162.345 -2.21513 164.422C-4.53966 166.498 -5.98407 169.447 -6.23062 172.62C-6.47717 175.793 -5.50566 178.93 -3.5298 181.341C-1.55395 183.752 1.26438 185.239 4.30521 185.475ZM66.2805 130.11C66.527 126.937 65.5555 123.8 63.5797 121.389C61.6038 118.979 58.7855 117.491 55.7447 117.255C52.7038 117.019 49.6896 118.053 47.3651 120.129C45.0406 122.206 43.5961 125.155 43.3496 128.328C43.103 131.501 44.0746 134.638 46.0504 137.049C48.0263 139.46 50.8446 140.947 53.8854 141.183C56.9262 141.419 59.9405 140.385 62.265 138.309C64.5895 136.232 66.0339 133.283 66.2805 130.11ZM12.0482 129.432C7.20636 133.757 6.61663 141.347 10.7322 146.368L31.8038 172.078C35.9194 177.099 43.1928 177.664 48.0346 173.339C52.8764 169.014 53.4662 161.424 49.3506 156.402L28.2789 130.693C24.1634 125.671 16.89 125.106 12.0482 129.432ZM75.2668 88.6816C75.781 82.0641 81.3201 77.1158 87.6619 77.6086C94.0037 78.1013 98.7119 83.8458 98.1977 90.4634C97.8114 95.4359 101.334 99.7342 106.1 100.105C110.865 100.475 115.01 96.7722 115.396 91.7997C116.68 75.2745 104.893 60.8932 89.0563 59.6627C73.2197 58.4321 59.3527 70.8201 58.0687 87.3453C57.6823 92.3178 61.2052 96.6162 65.9706 96.9864C70.7359 97.3567 74.8805 93.6541 75.2668 88.6816Z" fill="#2C2F70"/>
</g>
<defs>
<clipPath id="clip0_13_246">
<rect width="184" height="192" fill="white"/>
</clipPath>
</defs>
</svg>
